<svg xmlns="http://www.w3.org/2000/svg" width="128pt" height="128pt" viewBox="0 0 128 128"><g fill="#f7f5f4"><path d="M6.55 20.01c3.67-1.39 7.64-.97 11.47-1.01 32.68.01 65.36-.01 98.04.01 1.85-.04 3.64.45 5.39 1-18 18.16-36.07 36.24-54.13 54.34-1.65 1.93-5 1.97-6.63 0C42.64 56.24 24.58 38.14 6.55 20.01ZM1.08 25.24C14.04 38.1 26.87 51.09 39.78 64 26.89 76.91 14.05 89.86 1.13 102.73c-.28-.9-.85-2.7-1.13-3.6V29.32c.34-1.36.7-2.72 1.08-4.08ZM88.26 64c12.89-12.91 25.72-25.88 38.66-38.75.38 1.34.74 2.68 1.08 4.04v69.32c-.33 1.39-.69 2.77-1.07 4.14C113.99 89.89 101.16 76.91 88.26 64ZM6.54 107.99c12.83-12.91 25.68-25.78 38.52-38.67 3.66 3.54 7.13 7.27 10.82 10.79 4.26 4.3 11.9 4.28 16.2.05 3.72-3.52 7.21-7.27 10.86-10.85 12.84 12.89 25.72 25.74 38.52 38.68-1.75.53-3.54 1.03-5.39 1-34.39.03-68.78-.01-103.17.02-2.17.08-4.31-.34-6.36-1.02Z"/></g></svg>