<svg xmlns="http://www.w3.org/2000/svg" xml:space="preserve" width="16" height="15.978" style="shape-rendering:geometricPrecision;text-rendering:geometricPrecision;image-rendering:optimizeQuality;fill-rule:evenodd;clip-rule:evenodd" viewBox="0 0 423.34 422.76"><defs><style>.fil1{fill:#fff;fill-rule:nonzero}</style></defs><g id="Слой_x0020_1"><path d="M0 0h423.33v422.75H0z" style="fill:none"/><g id="_1671556126288"><path d="M51.36 36.09c11.58-6.2 25.03-8.12 38.02-7.4 14.04.76 27.82 4.28 40.82 9.56 5.93 2.56 11.8 5.28 17.45 8.43 5.01 2.75 9.85 5.8 14.7 8.81 9.08 6.04 17.93 12.41 26.68 18.92 4.14 3.12 8.42 6.04 12.64 9.05 12.93 9.12 30.36 19.43 45.26 25.38 5.3 2.14 10.66 4.15 16.17 5.65 9.38 2.7 19.03 4.73 28.81 4.85 4.72.08 8.77.41 13.44-.29 1.08-.07 5.15-1.06 7-2.02-.72.85-4.62 3.21-5.72 3.54-7.24 2.3-14.76 3.75-22.35 4.16-9.28.44-18.57-.63-27.66-2.47-6.47-1.22-12.77-3.13-19.05-5.05-11.47-3.76-22.56-8.67-33.21-14.35-9.85-5.21-19.29-11.16-28.56-17.32-4.52-3.01-8.89-6.24-13.45-9.17-4.55-2.95-9.17-5.79-13.88-8.47-10.62-6.2-21.8-11.5-33.52-15.27-10.6-3.47-21.7-6.02-32.92-5.63-7.93.19-15.83 2.05-22.95 5.59-3.19 1.72-6.38 3.51-9.15 5.89-3.55 3.11-6.87 6.54-9.47 10.49-5.36 7.65-8.72 16.48-11.32 25.39-2.44 8.33-3.53 16.98-4.16 25.61-.38 6.55-.85 13.11-.4 19.66.08 3.35.38 6.69.45 10.05.65 8.64 1.56 17.26 2.9 25.82 1.72 10.45 3.74 20.85 6.08 31.18.63 2.62 1.29 5.24 1.79 7.89.14.55 0 0 .31 2.36-1.16-2.03-.96-1.53-1.16-2.03-4.12-8.7-7.64-17.68-10.84-26.75-6.74-19.94-11.46-40.68-12.64-61.73-.61-11.4.07-22.87 2.05-34.11 1.4-7.89 3.79-15.61 7.05-22.94 2.93-6.33 6.8-12.22 11.25-17.59 3.47-3.87 7.2-7.53 11.35-10.68 2.55-1.94 5.35-3.53 8.19-5.01zM299.87 59.7c8.14-1.63 16.38-2.96 24.69-3.12 1.86-.03 3.72-.27 5.58-.19 3.64.22 7.3.24 10.92.74 3.79.43 7.51 1.27 11.2 2.2 2.78.66 5.42 1.78 8.08 2.79 4.77 1.91 9.23 4.5 13.41 7.47 9.7 6.73 17.4 16.1 22.79 26.55 2.41 5.04 4.47 10.24 6.11 15.57 2.09 6.8 3.31 13.82 4.29 20.85 1.17 8.48 1.62 17.05 1.47 25.61-.02 7.67-.79 15.32-1.68 22.93-1.61 13.38-4.56 26.56-7.92 39.6-6.03 23.06-15.98 49.14-26.87 70.37-5.59 10.92-11.84 21.49-18.58 31.74-5.91 8.87-12.25 17.44-18.96 25.72-6.86 8.55-14.62 16.34-22.77 23.65-5.13 4.37-10.55 8.39-16.16 12.11-6.7 4.7-14.17 8.17-21.79 11.07-10.9 3.66-22.84 5.33-34.12 2.49-1.5-.32-8.6-2.17-9.39-3.38 5.92 1.12 7.06.74 9.13.9 6.51.41 13.12.14 19.43-1.59 6.17-1.52 12-4.19 17.49-7.35 5.63-3.2 10.8-7.14 15.82-11.21 8.2-6.87 15.76-14.5 22.45-22.84 3.77-4.59 7.34-9.35 10.73-14.23 3.29-4.52 6.19-9.3 9.15-14.04 12.52-20.37 23.49-41.74 32.09-64.06 9.18-23.68 16.04-48.29 20.11-73.37 1.26-7.6 2.28-15.24 2.83-22.93.39-7.35.59-14.71.14-22.05-.57-10.15-2.45-20.22-5.31-29.97-2.02-5.78-4.55-11.41-7.86-16.57-6.34-10-16.03-17.8-27.14-21.89-2.05-.69-4.06-1.5-6.17-2.01-4.53-1.14-9.14-2.05-13.81-2.25-10.09-.88-20.22.08-30.22 1.42-8.26 1.37-16.46 3.02-24.63 4.86-12.13 2.91-24.39 5.42-36.82 6.58-3.13.34-6.28.25-9.42.46-1.79.04-3.73.26-5.52.06 1.37-.35.95-.25 1.37-.35 17.08-3.44 33.66-8.85 50.1-14.54 5.12-1.79 10.21-3.68 15.44-5.11 3.43-.93 6.85-1.89 10.32-2.69z" class="fil1"/><path d="M79.51 61.62c5.06-.44 10.2-.3 15.21.61 4.69.73 9.23 2.16 13.78 3.51 4.41 1.34 8.59 3.31 12.74 5.27 5.6 2.61 10.85 5.89 15.97 9.33 4.68 3.19 9.03 6.82 13.28 10.55 2.19 1.79 4.17 3.83 6.18 5.83.73.78 2.73 3.99 2.94 5.09.01.02-3.45-2.6-4.6-3.37-7.93-5.64-16.42-10.45-25.07-14.91-2.83-1.49-5.77-2.77-8.72-3.98-5.1-2.19-10.31-4.09-15.66-5.53-5.51-1.47-11.07-2.96-16.79-3.21-6.54-.36-13.25.59-19.17 3.51-2.81 1.47-5.63 3.06-7.88 5.35-6.69 6.46-10.84 15.05-13.76 23.77-3.33 9.53-4.94 19.54-6.53 29.48-.36 3.02-1.05 9.11-1.46 12.13.03.71-.48-2.56-.5-3.11-.51-1.78-.34-3.67-.57-5.5-.2-5.4-.12-10.8-.08-16.2-.05-2.26.28-4.5.3-6.76.53-7.79 2.4-15.44 5.13-22.75 2.04-5.08 4.76-9.9 8.14-14.22 2.41-3.07 5.34-5.69 8.47-8.01 5.51-3.8 12-6.15 18.65-6.88zm269.94 28.27c4.2 1.58 4.94 1.8 6.88 3.55 6.54 5.56 11.42 12.86 14.92 20.65 2.64 6.27 4.65 12.81 5.75 19.53 3.34 20.25 2.64 41.02-.84 61.21-.53 3.59-1.26 7.15-2.07 10.69-2.87 13.61-6.61 27.04-11.11 40.19-3.57 10.94-8.01 21.56-12.54 32.12-7.41 16.62-16.28 32.59-26.35 47.75-6.35 9.14-12.71 18.32-20.01 26.75-3.7 4.2-7.51 8.32-11.56 12.19-3.71 3.78-7.88 7.07-12.08 10.29-5.07 3.71-7.81 5.63-13.42 8.46-1.73.94-6.35 2.29-8.26 2.23 4.21-2.04 4.54-2.49 6.39-3.81 2.82-1.93 4.94-3.85 7.42-6.21 3.92-3.22 7.52-6.81 10.93-10.55 3.42-3.85 6.89-7.65 10.05-11.71 3.83-4.92 7.64-9.87 11.02-15.12 6.42-9.55 12.27-19.48 17.71-29.62 3.07-5.88 6.07-11.79 9.03-17.73 5.07-10.6 9.9-21.34 14.16-32.3 2.13-5.55 4.22-11.11 6.2-16.71 4.18-12.32 7.98-24.77 10.9-37.44 3.32-14.08 6.07-28.34 7.17-42.77.37-3.66.5-7.34.54-11.01-.03-4.61-.04-9.22-.53-13.8-.95-8.87-2.37-17.81-5.9-26.06-1.18-2.77-2.37-5.55-3.95-8.11-1.92-2.85-3.91-5.66-6.34-8.09-1.33-1.56-1.2-1.82-4.11-4.57zM81.31 179.81c0 1.45 0 3.52-2.38 5.17h13.39c12.56 0 20.3-7.6 20.3-18.25 0-9.35-5.36-18.4-20.25-18.4-3.56 0-10.18.26-13.44.47 2.38 1.65 2.38 3.72 2.38 5.17v25.84zm5.27-26.83c.83-.1 3.93-.41 5.79-.41 8.07 0 14.32 5.27 14.32 13.96 0 9.09-5.79 14.21-15.4 14.21-1.71 0-3.05-.1-4.71-.46v-27.3z" class="fil1"/><path id="_1" d="M116.71 148.8c2.38 1.65 2.38 3.82 2.38 5.17v25.84c0 1.34 0 3.52-2.38 5.17h22.54l2.64-7.29c-2.28 2.02-5.12 3.15-10.81 3.15-1.03 0-3.56-.05-6.72-.36v-12.97h5.38c1.81 0 2.94.36 3.93 1.34v-5.63c-.57.1-1.19.15-1.86.15h-7.45v-10.33l6.98-.16c3.05-.05 4.45.72 5.43 1.86v-5.94h-20.06z" class="fil1"/><path id="_2" d="M143.18 148.8c2.38 1.65 2.38 3.72 2.38 5.17v25.84c0 1.45 0 3.52-2.38 5.17h8.78c-2.37-1.65-2.37-3.72-2.37-5.17v-23.52l19.17 23.99c1.81 2.27 3.83 4.96 8.07 6.15v-32.46c0-1.45 0-3.52 2.38-5.17h-8.79c2.38 1.65 2.38 3.72 2.38 5.17v22.53l-21.15-26.36c-.05-.05-.36-.46-.77-1.34h-7.7z" class="fil1"/><path id="_3" d="m196.52 152.93 5.79-.05c1.29 0 3.15 0 4.13 1.76l1.81-6.05c-.93.1-2.07.21-3.15.21h-20c-1.35 0-2.07 0-3.31-.21l-2.07 6.46c1.91-1.96 4.13-2.17 5.38-2.17l6.15.05v26.88c0 1.45 0 3.52-2.38 5.17h10.03c-2.38-1.65-2.38-3.72-2.38-5.17v-26.88z" class="fil1"/><path id="_4" d="M216.16 148.8c2.12.98 1.39 2.94 1.19 3.46l-10.34 26.16c-.98 2.48-2.02 4.8-4.7 6.56h9.76c-2.42-1.71-1.96-3.83-1.24-5.63l3.26-8.12H228l3.92 9.72c.47 1.19.88 2.94-1.55 4.03h11.12c-2.54-1.34-3.57-3.31-4.4-5.32l-12.45-30.86h-8.48zm4.86 4.7 5.63 14.27h-11.22l5.59-14.27z" class="fil1"/><path id="_5" d="M241.12 148.8c2.38 1.65 2.38 3.72 2.38 5.17v25.84c0 1.45 0 3.52-2.38 5.17h10.03c-2.38-1.65-2.38-3.72-2.38-5.17v-25.84c0-1.45 0-3.52 2.38-5.17h-10.03z" class="fil1"/><path id="_6" d="M255.59 148.8c2.38 1.65 2.38 3.72 2.38 5.17v25.84c0 1.45 0 3.52-2.38 5.17h10.03c-2.38-1.65-2.38-3.72-2.38-5.17v-27.03c1.19-.31 2.17-.36 3.47-.36 6.35 0 7.23 3.72 7.23 6.04 0 5.17-5.48 7.29-9.2 7.65 3.26 6.1 11.32 19.18 17.27 19.18.56 0 1.96-.05 5.58-.31-5.12-2.12-12.61-11.48-16.65-17.83 5.59-.93 8.95-4.91 8.95-9.15 0-2.85-1.19-9.41-12.98-9.41-1.5 0-3 .05-4.49.1-2.28.06-4.55.11-6.83.11z" class="fil1"/><path id="_7" d="M284.64 148.8c2.38 1.65 2.38 3.82 2.38 5.17v25.84c0 1.34 0 3.52-2.38 5.17h22.54l2.64-7.29c-2.28 2.02-5.12 3.15-10.81 3.15-1.03 0-3.56-.05-6.72-.36v-12.97h5.38c1.81 0 2.94.36 3.93 1.34v-5.63c-.57.1-1.19.15-1.86.15h-7.45v-10.33l6.98-.16c3.05-.05 4.45.72 5.43 1.86v-5.94h-20.06z" class="fil1"/><path d="M118.4 281.75c-.98-.14-1.6-.27-2.48-.49-1.47-.31-3.06-.71-5.76-.71-11.2 0-17.23 7.88-17.23 16.38 0 6.87 4.12 15.94 17.41 15.94 2.92 0 5.13-.26 7.75-1.1l3.01-5.94c-1.33 1.11-4.3 3.28-10.41 3.28-8.94 0-12.66-6.91-12.66-13.37 0-7.57 5.8-11.43 11.6-11.43 4.65 0 7.92 2.26 8.77 2.84v-5.4z" class="fil1"/><path id="_1_0" d="M122.77 281.21c2.04 1.42 2.04 3.19 2.04 4.43v22.14c0 1.24 0 3.01-2.04 4.43h19.04l2.48-6.42c-2.79 2.35-6.99 2.88-9.87 2.88-1.46 0-3.63-.22-5.09-.4v-22.63c0-1.1.09-3.05 2.26-4.43h-8.82z" class="fil1"/><path id="_2_1" d="M145.53 281.21c2.04 1.42 2.04 3.19 2.04 4.43v22.14c0 1.24 0 3.01-2.04 4.43h8.59c-2.03-1.42-2.03-3.19-2.03-4.43v-22.14c0-1.24 0-3.01 2.03-4.43h-8.59z" class="fil1"/><path id="_3_2" d="M157.8 281.21c2.04 1.42 2.04 3.19 2.04 4.43v22.14c0 1.24 0 3.01-2.04 4.43h7.53c-2.04-1.42-2.04-3.19-2.04-4.43v-20.15l16.43 20.55c1.55 1.95 3.28 4.25 6.91 5.27v-27.81c0-1.24 0-3.01 2.03-4.43h-7.52c2.03 1.42 2.03 3.19 2.03 4.43v19.31l-18.11-22.58c-.04-.05-.31-.4-.66-1.16h-6.6z" class="fil1"/><path id="_4_3" d="M192.34 281.21c2.04 1.42 2.04 3.19 2.04 4.43v22.14c0 1.24 0 3.01-2.04 4.43h8.59c-2.03-1.42-2.03-3.19-2.03-4.43v-22.14c0-1.24 0-3.01 2.03-4.43h-8.59z" class="fil1"/><path id="_5_4" d="M221.44 280.55c-11.16 0-17.01 7.88-17.01 16.16 0 9.74 7.4 16.16 17.01 16.16.93 0 1.9-.08 2.83-.22 3.15 2.79 9.96 8.37 15.1 8.37 2.57 0 4.52-1.06 5.93-2.35-2.12.09-7.61-.22-15.23-7.83 5.45-2.79 8.37-8.28 8.37-14.13 0-7.79-5.4-16.16-17-16.16zm.09 3.63c6.99 0 11.82 5.54 11.82 13.24 0 8.15-6.29 11.82-12 11.82-7 0-11.82-5.53-11.82-13.24 0-8.14 6.28-11.82 12-11.82z" class="fil1"/><path id="_6_5" d="M241.81 281.21c2.04 1.42 2.04 3.19 2.04 4.43v16.39c0 3.72.97 10.84 11.2 10.84 2.83 0 6.11-.62 8.99-3.63v2.97h6.42c-2.04-1.42-2.04-3.19-2.04-4.43v-22.14c0-1.24 0-3.01 2.04-4.43h-8.59c2.04 1.42 2.04 3.19 2.04 4.43v16.39c0 4.65-3.28 7.21-8.15 7.21-7.35 0-7.4-5.71-7.4-7.79v-15.81c0-1.24 0-3.01 2.04-4.43h-8.59z" class="fil1"/><path id="_7_6" d="M274.26 281.21c2.04 1.42 2.04 3.28 2.04 4.43v22.14c0 1.15 0 3.01-2.04 4.43h19.31l2.26-6.24c-1.95 1.72-4.39 2.7-9.26 2.7-.88 0-3.05-.05-5.75-.31v-11.12h4.6c1.55 0 2.53.31 3.37 1.15v-4.82c-.49.09-1.02.13-1.6.13h-6.37v-8.86l5.98-.13c2.61-.04 3.8.62 4.64 1.6v-5.1h-17.18z" class="fil1"/><path d="M114.74 214.78c2.12.98 1.39 2.94 1.19 3.46l-10.34 26.16c-.98 2.48-2.02 4.8-4.7 6.56h9.76c-2.42-1.71-1.96-3.83-1.24-5.63l3.26-8.12h13.91l3.92 9.72c.47 1.19.88 2.94-1.55 4.03h11.12c-2.54-1.34-3.57-3.31-4.4-5.32l-12.45-30.86h-8.48zm4.86 4.7 5.63 14.27h-11.22l5.59-14.27z" class="fil1"/><path id="_1_7" d="M132.26 214.78c1.81 1.6 2.43 3 2.95 4.44l9.87 26.62c.73 2.02 1.09 3.62 6.31 6.57l15.09-37.63h-8.53c1.29.77 1.91 2.22 1.91 3.36 0 .62-.05 1.91-1.39 5.32l-8.01 20.68-9.46-25.9c-.42-1.14-.62-2.38-.67-3.46h-8.07z" class="fil1"/><path id="_2_8" d="M167.15 214.78c2.38 1.65 2.38 3.82 2.38 5.17v25.84c0 1.34 0 3.52-2.38 5.17h22.54l2.64-7.29c-2.28 2.02-5.12 3.15-10.81 3.15-1.03 0-3.56-.05-6.72-.36v-12.97h5.38c1.81 0 2.94.36 3.93 1.34v-5.63c-.57.1-1.19.15-1.86.15h-7.45v-10.33l6.98-.16c3.05-.05 4.45.72 5.43 1.86v-5.94h-20.06z" class="fil1"/><path id="_3_9" d="M193.62 214.78c2.38 1.65 2.38 3.72 2.38 5.17v25.84c0 1.45 0 3.52-2.38 5.17h8.78c-2.37-1.65-2.37-3.72-2.37-5.17v-23.52l19.17 23.99c1.81 2.27 3.83 4.96 8.07 6.15v-32.46c0-1.45 0-3.52 2.38-5.17h-8.79c2.38 1.65 2.38 3.72 2.38 5.17v22.53l-21.15-26.36c-.05-.05-.36-.46-.77-1.34h-7.7z" class="fil1"/><path id="_4_10" d="M233.93 214.78c2.38 1.65 2.38 3.72 2.38 5.17v25.84c0 1.45 0 3.52-2.38 5.17h10.03c-2.38-1.65-2.38-3.72-2.38-5.17v-25.84c0-1.45 0-3.52 2.38-5.17h-10.03z" class="fil1"/><path id="_5_11" d="M248.4 214.78c2.38 1.65 2.38 3.72 2.38 5.17v25.84c0 1.45 0 3.52-2.38 5.17h10.03c-2.38-1.65-2.38-3.72-2.38-5.17v-27.03c1.19-.31 2.17-.36 3.47-.36 6.35 0 7.23 3.72 7.23 6.04 0 5.17-5.48 7.29-9.2 7.65 3.26 6.1 11.32 19.18 17.27 19.18.56 0 1.95-.05 5.57-.31-5.11-2.12-12.6-11.48-16.64-17.83 5.59-.93 8.95-4.91 8.95-9.15 0-2.85-1.19-9.41-12.98-9.41-1.5 0-3 .05-4.49.1-2.28.06-4.55.11-6.83.11z" class="fil1"/><path d="M279.2 241.88h6.55c.71.9 1.42 1.79 2.13 2.69-1.81 2.11-3.61 4.22-5.41 6.33l-5.4-6.33 2.13-2.69z" class="fil1"/></g></g></svg>