<svg xmlns="http://www.w3.org/2000/svg" width="128pt" height="128pt" viewBox="0 0 128 128"><g fill="#f7f5f4"><path d="M117.37 13.18c3.47-1.16 6.84-3.32 10.63-2.71v2.41c-6.77 33.39-13.78 66.74-20.64 100.11-.38 2.08-1.34 5.43-4.14 4.72-2.73-1.07-4.98-3.03-7.4-4.64-14.98-10.33-29.97-20.64-44.97-30.94 15.36-14.08 30.7-28.19 46.08-42.24 1.04-1.12 2.56-2.2 2.57-3.89.34-2.38-2.17-4.68-4.5-4.04-2.2.67-4.14 1.94-6.16 3-21.35 11.52-42.77 22.92-64.13 34.41-6.89-2.49-13.75-5.07-20.66-7.52-1.47-.49-2.83-1.26-4.05-2.22V58.4c2.7-2.19 6.17-2.92 9.32-4.22 36.01-13.68 72.05-27.3 108.05-41Z"/><path d="M29.98 75.38c13.41-7.15 26.76-14.42 40.21-21.49-9.14 8.25-18.15 16.65-27.27 24.93-.86.91-2.1 1.76-2.11 3.15-.28 5.9-.07 11.82-.21 17.73-3.52-8.11-7.07-16.21-10.62-24.32ZM48.37 109.73c-.03-6.61.05-13.22.09-19.84 4.06 2.87 8.21 5.61 12.26 8.49-4.13 3.78-8.02 7.81-12.35 11.35Z"/></g></svg>