<svg xmlns="http://www.w3.org/2000/svg" width="128pt" height="128pt" viewBox="0 0 128 128"><path fill="#f7f5f4" d="M0 29.72c.42-2.92 3.69-3.15 6.04-3.07 4.95.15 9.95-.3 14.88.28 2.73.66 3.56 3.66 4.53 5.92 4.48 11.87 9.93 23.76 18.53 33.25 1.46 1.68 5.14 4.25 6.45 1.15.89-5.01.24-10.16.43-15.24-.15-5.97.96-12.78-3.1-17.81-1.12-1.73-3.49-3.81-1.92-5.99 1.34-2.06 4.07-1.44 6.13-1.56 6.71.15 13.43-.2 20.13.16 2.5.32 2.68 3.23 2.7 5.2.04 8.34 0 16.68-.01 25.02.09 1.95-.17 4.29 1.48 5.71 2.57.56 4.59-1.57 6.32-3.13 8.34-8.61 13.68-19.52 18.87-30.19 1.89-3.43 6.27-2.69 9.55-2.77 4.22.26 8.59-.53 12.73.53 2.81 1.36 1.32 4.91.49 7.08-4.8 10.61-11.83 19.97-18.28 29.59-.94 1.36-1.63 3.27-.36 4.67 7.61 9.17 17.96 16.7 22.41 28.1v1.62c-.55 2.23-2.87 3.13-4.96 3.06-4.67.08-9.35.06-14.02 0-2.21.07-4.32-.87-5.9-2.39-6.93-6.67-12.83-14.84-21.59-19.27-2.01-.9-5.86-1.51-6.42 1.4-.87 5.54.13 11.18-.49 16.73-.52 2.53-3.48 3.09-5.64 3.34-11.81 1.27-23.59-3.25-32.87-10.35C25.55 82.83 18.47 71.4 11.8 60.23 6.7 50.98 1.74 41.32 0 30.8v-1.08Z"/></svg>