<svg xmlns="http://www.w3.org/2000/svg" width="128pt" height="128pt" viewBox="0 0 128 128"><g fill="#f7f5f4"><path d="M60.77 0h6.27c15.27.82 30.24 7.07 41.22 17.78C120.05 28.9 127.09 44.65 128 60.79V67c-.87 17.18-8.82 33.9-21.87 45.16-10.68 9.52-24.66 14.98-38.9 15.84h-3.94c-10.58-.14-21.05-2.96-30.34-8.01-9.59 2.68-19.17 5.37-28.78 8.01H2.89c-.68-1.22-1.83-2.07-2.89-2.95v-1.17c2.59-9.63 5.37-19.21 8.01-28.83C3.06 86.04.31 75.87 0 65.59V61.5c.64-15.92 7.36-31.52 18.73-42.72C29.77 7.56 45.08.88 60.77 0M44.43 29.65c-5.6 1.54-9.66 6.51-12.43 11.38-4.39 9.19-2.1 20.08 2.38 28.79 6.63 12.6 18.18 22.84 31.88 27.02 8.06 2.42 17.64 2.24 24.47-3.21 3.83-3.22 8.04-7.21 7.9-12.64.28-5.49-3.99-9.49-7.76-12.83-4.49-4.02-12.04-3.81-16.26.52-1.34 1.05-2.55 3.2-4.56 2.31-4.48-4.19-8.82-8.56-13.03-13.02-.01-.49-.03-1.48-.05-1.97 2.91-3.03 6-6.5 5.76-11.03.22-5.28-3.78-9.16-7.4-12.39-2.85-2.72-7.08-3.79-10.9-2.93Z"/><path d="M45.23 37.22c2.1-.99 4.5-.01 5.91 1.67 2.12 2.05 5.31 4.63 3.72 7.97-1.99 2.9-5.37 5.18-5.49 9.05-.84 6.27 5.12 9.9 8.78 13.93 3.65 3.21 6.54 8.21 11.8 8.77 3.77.57 7.17-1.6 9.58-4.29 1.76-2.12 5.26-2.05 7.03.02 2.24 2.21 5.89 4.85 4.18 8.47-2.47 3.49-5.94 6.68-10.28 7.53-7.28 1.56-14.78-.95-21.04-4.61-9.67-5.87-17.68-14.99-21.04-25.91-1.65-5.58-2.05-12.14 1.33-17.18 1.6-2.01 3.33-4.04 5.52-5.42Z"/></g></svg>