<?xml version="1.0" encoding="UTF-8"?>
<!DOCTYPE svg PUBLIC "-//W3C//DTD SVG 1.1//EN" "http://www.w3.org/Graphics/SVG/1.1/DTD/svg11.dtd">
<!-- Creator: CorelDRAW -->
<svg xmlns="http://www.w3.org/2000/svg" xml:space="preserve" width="4.366mm" height="4.366mm" version="1.1" style="shape-rendering:geometricPrecision; text-rendering:geometricPrecision; image-rendering:optimizeQuality; fill-rule:evenodd; clip-rule:evenodd"
viewBox="0 0 436.6 436.6"
 xmlns:xlink="http://www.w3.org/1999/xlink"
 xmlns:xodm="http://www.corel.com/coreldraw/odm/2003">
 <defs>
  <style type="text/css">
   <![CDATA[
    .fil0 {fill:#F7F5F4}
   ]]>
  </style>
 </defs>
 <g id="Слой_x0020_1">
  <metadata id="CorelCorpID_0Corel-Layer"/>
  <path class="fil0" d="M316 263.46c-5.41,-2.7 -31.98,-15.78 -36.94,-17.58 -4.95,-1.81 -8.56,-2.71 -12.16,2.71 -3.6,5.41 -13.96,17.58 -17.11,21.19 -3.16,3.61 -6.31,4.06 -11.71,1.35 -0.88,-0.44 -2.09,-0.97 -3.58,-1.61 -7.61,-3.3 -22.62,-9.81 -39.89,-25.22 -16.07,-14.34 -26.92,-32.04 -30.07,-37.44 -3.16,-5.42 -0.34,-8.34 2.37,-11.03 1.62,-1.62 3.48,-3.89 5.34,-6.16 0.93,-1.13 1.86,-2.26 2.76,-3.31 2.29,-2.68 3.29,-4.71 4.64,-7.46 0.24,-0.5 0.49,-1.01 0.77,-1.56 1.8,-3.61 0.9,-6.76 -0.45,-9.47 -0.9,-1.81 -6.02,-14.28 -10.67,-25.58 -2.31,-5.63 -4.5,-10.96 -6,-14.56 -3.87,-9.3 -7.8,-9.28 -10.95,-9.26 -0.42,0.01 -0.82,0.01 -1.21,-0.01 -3.15,-0.16 -6.76,-0.19 -10.36,-0.19 -3.6,0 -9.45,1.35 -14.41,6.77 -0.32,0.34 -0.68,0.73 -1.07,1.14 -5.63,6.01 -17.85,19.06 -17.85,43.95 0,26.54 19.27,52.18 22.05,55.89l0.02 0.02c0.18,0.24 0.49,0.69 0.94,1.33 6.45,9.26 40.71,58.4 91.4,80.29 12.9,5.57 22.96,8.89 30.81,11.38 12.95,4.12 24.74,3.54 34.05,2.15 10.39,-1.55 31.98,-13.07 36.49,-25.7 4.5,-12.62 4.5,-23.45 3.15,-25.7 -1.09,-1.83 -3.64,-3.06 -7.43,-4.89 -0.91,-0.44 -1.88,-0.91 -2.93,-1.44zm54.41 -198.16c-40.85,-40.9 -95.16,-63.43 -153.03,-63.45 -119.24,0 -216.29,97.04 -216.33,216.32 -0.02,38.12 9.94,75.34 28.87,108.14l-30.69 112.11 114.68 -30.08c31.59,17.23 67.17,26.31 103.37,26.33l0.09 0c119.22,0 216.28,-97.05 216.33,-216.32 0.03,-57.81 -22.45,-112.16 -63.29,-153.05z"/>
 </g>
</svg>
